<?xml version="1.0" standalone="no"?>
<!DOCTYPE svg PUBLIC "-//W3C//DTD SVG 20010904//EN"
 "http://www.w3.org/TR/2001/REC-SVG-20010904/DTD/svg10.dtd">
<svg version="1.0" xmlns="http://www.w3.org/2000/svg"
 width="1024.000000pt" height="1024.000000pt" viewBox="0 0 1024.000000 1024.000000"
 preserveAspectRatio="xMidYMid meet">
<metadata>
Created by potrace 1.14, written by Peter Selinger 2001-2017
</metadata>
<g transform="translate(0.000000,1024.000000) scale(0.100000,-0.100000)"
fill="#000000" stroke="none">
<path d="M0 5120 l0 -5120 5120 0 5120 0 0 5120 0 5120 -5120 0 -5120 0 0
-5120z m4938 2493 l-3 -758 -115 -23 c-313 -63 -613 -211 -830 -409 -120 -109
-180 -180 -272 -317 -238 -355 -343 -772 -298 -1171 64 -553 342 -1004 803
-1303 155 -100 406 -196 597 -228 58 -10 108 -23 112 -28 4 -6 8 -348 8 -759
0 -665 -2 -748 -15 -754 -26 -9 -389 47 -540 83 -393 97 -755 263 -1113 511
-108 75 -323 252 -346 285 -9 12 -16 18 -16 13 0 -5 -23 15 -51 45 -136 145
-221 239 -256 285 -21 28 -43 55 -49 60 -21 19 -132 181 -196 285 -211 343
-333 657 -418 1080 -71 352 -79 761 -21 1095 90 517 240 899 510 1299 159 235
448 545 681 731 73 58 247 185 254 185 2 0 30 18 63 40 119 79 477 261 520
264 11 0 19 4 17 8 -7 11 213 90 370 132 149 40 480 100 579 105 l27 1 -2
-757z m492 743 c253 -33 548 -101 728 -168 105 -38 346 -146 410 -182 35 -20
66 -36 69 -36 24 0 343 -208 458 -299 75 -59 75 -59 210 -178 193 -171 507
-535 489 -565 -4 -6 -2 -8 4 -5 19 12 148 -196 246 -398 134 -276 204 -493
266 -820 25 -133 52 -397 42 -407 -5 -5 -347 -7 -762 -6 l-754 3 -26 125 c-61
289 -159 514 -321 737 -34 47 -57 88 -53 95 4 6 3 8 -3 5 -12 -7 -129 113
-125 128 2 5 1 7 -3 3 -4 -4 -42 23 -84 59 -99 85 -244 180 -362 238 -124 61
-330 130 -451 151 l-98 18 0 758 c0 417 3 758 8 758 4 0 54 -6 112 -14z m-120
-2452 c112 -22 329 -131 313 -157 -3 -6 -1 -7 5 -3 14 8 115 -90 160 -157 49
-70 99 -182 123 -272 30 -114 30 -299 0 -410 -27 -98 -94 -237 -137 -282 -17
-18 -29 -33 -26 -33 11 0 -53 -62 -113 -110 -243 -194 -578 -235 -854 -105
-254 121 -417 340 -467 626 -43 250 68 549 267 717 99 84 175 128 284 164 152
49 276 55 445 22z m3046 -979 c13 -32 -34 -358 -81 -570 -36 -159 -112 -387
-180 -540 -37 -83 -96 -199 -103 -205 -4 -3 -8 -11 -10 -18 -5 -28 -163 -281
-235 -377 -89 -120 -151 -194 -159 -189 -5 3 -7 2 -6 -3 5 -16 -23 -54 -35
-47 -7 4 -9 4 -5 -1 11 -11 -102 -136 -116 -128 -6 3 -8 2 -3 -2 9 -10 -82
-106 -94 -99 -4 2 -11 -1 -15 -7 -5 -8 -2 -10 7 -4 16 9 -44 -48 -116 -110
-98 -83 -268 -205 -278 -198 -5 3 -8 2 -4 -3 3 -5 -22 -27 -56 -48 -34 -21
-73 -46 -87 -56 -47 -31 -227 -129 -301 -164 -347 -162 -775 -274 -1094 -288
l-70 -3 -3 763 -2 762 29 0 c50 0 213 37 326 75 333 111 672 366 865 650 138
205 245 474 284 717 8 48 17 92 21 98 4 7 251 10 761 10 653 0 755 -2 760 -15z"/>
</g>
</svg>
